<svg xmlns="http://www.w3.org/2000/svg" viewBox="0 0 1940 552" width="1940" height="552">
  <path
    d="M1906 361c7-65-92-97-122-100-12-74-77-130-152-133-39-120-212-129-264-15-54-20-106 10-144 54-26-44-77-75-133-54-52-114-225-105-264 15-38 2-75 17-103 44-30-46-87-73-145-59-52-114-225-105-262 18-81-3-142 56-149 134-58 1-132 19-135 79-2 42 35 72 70 86 49 20 106 18 162-10 34 30 76 30 115 10 47 99 178 118 251 38 61 8 114-5 151-29 36 11 75 10 110-4 47 94 178 113 251 33 33 9 61 3 88-20 25 23 54 28 85 20 73 80 204 61 251-33 48 26 79 21 120 0 51 13 108 15 157-5 12-4 56-27 62-69Z"
    fill="#eee" />
</svg>
